<svg xmlns:dc="http://purl.org/dc/elements/1.1/" xmlns:cc="http://creativecommons.org/ns#" xmlns:rdf="http://www.w3.org/1999/02/22-rdf-syntax-ns#" xmlns:svg="http://www.w3.org/2000/svg" xmlns="http://www.w3.org/2000/svg" id="svg4" xml:space="preserve" y="0px" x="0px" viewBox="167.79 335.69 688.42 96.62"><metadata></metadata><defs id="defs8"></defs><path id="path2" d="m256.69 335.69c-0.33 0-0.83 0.04-1.12 0.07-0.28 0.04-0.91 0.12-1.39 0.16-0.48 0.05-0.95 0.09-1.05 0.09-0.09 0-0.58 0.11-1.09 0.24-0.5 0.14-1.28 0.37-1.72 0.52-0.45 0.15-1.01 0.38-1.26 0.5-0.25 0.13-0.51 0.27-0.59 0.33-0.08 0.05-0.25 0.15-0.38 0.23-0.14 0.07-0.45 0.25-0.71 0.39-0.25 0.15-1.03 0.54-1.72 0.88s-1.68 0.81-2.21 1.03c-0.53 0.23-1.38 0.57-1.89 0.76s-1.42 0.51-2.02 0.71c-0.6 0.19-1.44 0.45-1.86 0.57s-1.17 0.33-1.66 0.45c-0.5 0.12-1.35 0.32-1.89 0.44s-1.49 0.3-2.1 0.4c-0.62 0.11-1.4 0.23-1.75 0.27-0.34 0.05-1.11 0.14-1.69 0.2-0.59 0.06-1.42 0.13-1.86 0.16-0.43 0.04-1.28 0.08-1.88 0.11-0.61 0.03-2.22 0.06-3.58 0.06-1.37 0-2.98-0.03-3.58-0.06s-1.46-0.08-1.91-0.11-1.31-0.11-1.91-0.17-1.46-0.15-1.91-0.21c-0.46-0.06-1.29-0.19-1.86-0.27-0.57-0.09-1.47-0.25-2-0.36-0.52-0.11-1.4-0.3-1.94-0.44-0.54-0.13-1.32-0.34-1.74-0.46s-1.27-0.39-1.89-0.6c-0.61-0.2-1.6-0.56-2.18-0.78-0.59-0.23-1.41-0.56-1.83-0.74s-1.09-0.47-1.48-0.65-1.16-0.55-1.72-0.83-1.05-0.53-1.11-0.55c-0.05-0.03-0.13-0.08-0.19-0.11-0.05-0.03-0.39-0.2-0.75-0.37-0.36-0.18-0.77-0.38-0.9-0.44-0.14-0.07-0.29-0.12-0.33-0.12s-0.11-0.03-0.16-0.07c-0.05-0.05-0.21-0.13-0.36-0.19s-0.46-0.15-0.68-0.2c-0.23-0.05-0.6-0.12-0.82-0.17-0.23-0.05-0.57-0.11-0.77-0.14-0.19-0.02-0.47-0.08-0.62-0.13-0.15-0.04-0.47-0.08-0.74-0.08-0.26 0-0.61-0.04-0.79-0.08-0.24-0.07-0.66-0.08-1.88-0.08-0.95 0-1.64 0.02-1.76 0.05-0.1 0.04-0.44 0.1-0.75 0.14s-0.88 0.15-1.28 0.24c-0.4 0.1-0.9 0.21-1.11 0.26s-0.68 0.19-1.04 0.32-0.95 0.36-1.31 0.51c-0.36 0.14-0.86 0.36-1.12 0.48-0.25 0.13-0.61 0.35-0.79 0.51-0.18 0.15-0.52 0.4-0.76 0.54-0.35 0.22-0.71 0.54-1.79 1.63-0.8 0.81-1.38 1.43-1.44 1.56-0.05 0.11-0.21 0.32-0.35 0.47-0.13 0.14-0.29 0.28-0.34 0.31-0.04 0.03-0.24 0.28-0.44 0.57-0.19 0.28-0.48 0.73-0.64 1-0.15 0.27-0.44 0.8-0.63 1.18s-0.48 1.03-0.65 1.46c-0.16 0.42-0.4 1.1-0.52 1.51s-0.28 1.05-0.36 1.42c-0.07 0.37-0.17 0.95-0.22 1.29-0.05 0.35-0.1 1.15-0.12 1.78-0.02 0.71-0.01 1.46 0.04 1.97 0.03 0.45 0.12 1.16 0.19 1.58 0.08 0.42 0.22 1.08 0.33 1.48 0.11 0.39 0.31 0.99 0.44 1.34 0.14 0.34 0.39 0.89 0.57 1.22 0.17 0.33 0.36 0.7 0.43 0.82 0.06 0.12 0.17 0.34 0.23 0.49 0.07 0.14 0.34 0.6 0.61 1.01s0.7 1 0.96 1.32c0.26 0.31 0.84 0.94 1.29 1.4 0.45 0.45 1.11 1.05 1.46 1.34s0.87 0.7 1.17 0.92c0.3 0.21 0.86 0.59 1.25 0.83s1.14 0.73 1.67 1.08c0.52 0.35 1.31 0.91 1.75 1.23 0.43 0.32 1.08 0.82 1.44 1.11 0.36 0.28 0.99 0.8 1.4 1.15 0.4 0.35 1.05 0.93 1.44 1.29 0.39 0.37 1.21 1.17 1.81 1.78s1.44 1.51 1.87 2c0.42 0.48 1 1.17 1.28 1.53 0.28 0.35 0.86 1.1 1.27 1.65 0.42 0.56 1.04 1.41 1.38 1.89 0.35 0.48 0.93 1.33 1.3 1.88 0.37 0.56 0.93 1.45 1.24 1.98 0.32 0.52 0.92 1.57 1.33 2.32 0.4 0.74 1.15 2.18 1.65 3.19 0.51 1 1.18 2.43 1.51 3.16 0.33 0.74 0.73 1.68 0.89 2.08 0.16 0.41 0.46 1.21 0.65 1.78 0.2 0.57 0.48 1.44 0.63 1.94 0.15 0.49 0.4 1.41 0.57 2.04 0.16 0.63 0.38 1.56 0.48 2.05 0.11 0.5 0.28 1.41 0.38 2.02 0.11 0.62 0.25 1.52 0.31 2s0.15 1.26 0.19 1.75c0.05 0.48 0.11 1.78 0.14 2.89l0.04 2.02 0.14 0.52c0.08 0.29 0.29 1.13 0.48 1.89 0.25 1.01 0.39 1.49 0.57 1.85 0.12 0.27 0.26 0.59 0.3 0.71s0.13 0.34 0.2 0.49c0.08 0.15 0.24 0.44 0.37 0.63 0.12 0.2 0.32 0.53 0.43 0.74 0.12 0.21 0.31 0.52 0.43 0.69 0.11 0.17 0.57 0.74 1.02 1.26 0.44 0.52 1.14 1.27 1.54 1.66 0.41 0.39 1.01 0.93 1.34 1.19 0.32 0.26 0.83 0.63 1.11 0.83 0.29 0.19 1.02 0.6 1.62 0.92 0.64 0.33 1.3 0.63 1.6 0.73 0.29 0.09 0.68 0.2 0.88 0.23 0.2 0.04 0.49 0.12 0.65 0.17 0.16 0.06 0.47 0.16 0.68 0.22s0.69 0.17 1.05 0.24c0.36 0.08 1 0.18 1.42 0.22 0.43 0.04 1.32 0.08 2.05 0.08 0.75 0 1.59-0.04 2.04-0.08 0.43-0.05 1.05-0.13 1.4-0.19 0.34-0.07 1-0.21 1.45-0.33 0.46-0.12 1.15-0.33 1.53-0.47 0.39-0.14 1.04-0.41 1.45-0.6 0.42-0.19 1.06-0.52 1.43-0.73 0.36-0.22 0.88-0.55 1.15-0.74s0.73-0.55 1.03-0.79c0.29-0.25 0.81-0.74 1.15-1.1 0.35-0.35 0.85-0.91 1.11-1.23 0.26-0.33 0.7-0.94 0.97-1.36 0.28-0.42 0.64-0.99 0.79-1.26 0.16-0.28 0.46-0.87 0.67-1.32 0.22-0.44 0.43-0.85 0.48-0.89 0.05-0.05 0.22-0.53 0.37-1.07 0.16-0.54 0.34-1.22 0.4-1.52 0.07-0.31 0.16-0.7 0.2-0.88 0.05-0.22 0.07-0.78 0.07-1.8 0-0.81 0.03-1.88 0.06-2.38 0.03-0.49 0.08-1.21 0.11-1.58 0.03-0.38 0.11-1.11 0.16-1.64 0.06-0.53 0.19-1.43 0.28-2.02 0.09-0.58 0.26-1.56 0.38-2.16s0.35-1.61 0.51-2.24c0.17-0.63 0.44-1.59 0.61-2.13s0.47-1.41 0.66-1.94c0.2-0.52 0.61-1.55 0.92-2.27s0.8-1.83 1.1-2.46c0.29-0.63 0.74-1.56 0.99-2.07 0.26-0.51 0.69-1.35 0.96-1.86s0.69-1.28 0.93-1.72c0.24-0.43 0.69-1.23 1.01-1.77 0.31-0.54 0.84-1.41 1.16-1.92 0.33-0.51 0.86-1.31 1.18-1.77 0.32-0.47 0.89-1.26 1.28-1.78 0.38-0.51 1.02-1.32 1.42-1.8 0.39-0.48 0.93-1.13 1.19-1.45 0.26-0.31 0.73-0.86 1.05-1.22 0.32-0.37 0.88-0.98 1.26-1.37 0.37-0.38 1.05-1.05 1.5-1.48 0.45-0.42 1.17-1.06 1.58-1.42 0.42-0.36 1.06-0.89 1.42-1.18s1-0.78 1.42-1.08c0.42-0.31 1.29-0.91 1.94-1.34 0.64-0.43 1.32-0.87 1.51-0.99 0.18-0.12 0.62-0.4 0.96-0.63 0.52-0.35 0.83-0.63 2.03-1.83 0.77-0.78 1.44-1.49 1.48-1.58 0.03-0.09 0.26-0.43 0.5-0.76s0.51-0.71 0.59-0.85c0.09-0.13 0.24-0.39 0.34-0.56 0.1-0.18 0.18-0.35 0.18-0.39s0.07-0.2 0.16-0.36c0.09-0.17 0.18-0.41 0.2-0.55 0.02-0.17 0.13-0.41 0.3-0.69 0.15-0.23 0.34-0.58 0.44-0.78 0.09-0.19 0.2-0.5 0.24-0.68s0.16-0.64 0.27-1.01c0.11-0.38 0.27-1.04 0.36-1.48 0.08-0.44 0.19-1.09 0.24-1.45 0.04-0.36 0.11-1.17 0.15-1.8s0.07-1.5 0.06-1.93-0.05-1.04-0.1-1.36c-0.05-0.33-0.15-0.86-0.23-1.19-0.07-0.33-0.23-0.88-0.35-1.23-0.12-0.34-0.33-0.88-0.48-1.2-0.14-0.31-0.46-0.94-0.71-1.39s-0.52-0.91-0.6-1.02-0.3-0.41-0.49-0.66c-0.2-0.25-0.75-0.87-1.24-1.38-0.48-0.51-1.1-1.14-1.37-1.39-0.26-0.26-0.72-0.66-1.02-0.89-0.3-0.24-0.76-0.58-1.04-0.77-0.27-0.18-0.85-0.54-1.28-0.78-0.43-0.25-1.05-0.57-1.38-0.71-0.34-0.14-0.98-0.38-1.43-0.52-0.45-0.15-1.18-0.36-1.62-0.46-0.44-0.11-0.91-0.22-1.04-0.25-0.14-0.04-0.56-0.09-0.93-0.11-0.38-0.02-0.86-0.07-1.07-0.1s-0.65-0.05-0.98-0.05zm565.85 1.27c-8.06 0-15.63 2.65-21.28 7.58-5.77 5.05-9.02 11.78-9.02 19.24 0 4.2 0.96 8.17 2.64 11.54 1.69 3.12 3.85 5.77 6.98 8.17 5.29 4.21 11.78 6.86 18.64 9.38 0.36 0.12 0.84 0.24 1.32 0.48 4.93 1.81 9.14 3.49 11.78 5.41 2.41 1.69 3.25 3.61 3.25 6.5 0 2.64-0.96 4.69-3.13 6.25-2.28 1.68-6.01 2.64-10.22 2.64-3.61 0-7.33-0.84-10.82-2.52-3.61-1.68-6.97-4.33-9.5-7.45l-3.13-3.97-12.5 14.79 2.52 2.76c8.78 9.38 20.69 14.55 33.31 14.55 8.54 0 16.6-2.52 22.49-6.97 3.24-2.53 5.77-5.53 7.57-9.02 1.81-3.73 2.77-7.82 2.77-12.27 0-8.17-2.77-14.54-8.66-19.23-4.81-4.09-11.3-6.62-18.16-9.26-0.72-0.36-1.56-0.6-2.28-0.96-4.93-1.81-9.5-3.61-12.39-5.54-1.92-1.44-3.24-3-3.24-5.77 0.12-6.13 6.01-8.29 11.06-8.29 5.41 0 11.9 2.76 17.92 7.69l3.36 2.77 11.55-15.03-3.25-2.53c-8.9-7.21-19.12-10.94-29.58-10.94zm-105.17 0.24c-6.5 0-12.63 1.2-18.52 3.73-5.65 2.4-10.7 5.77-15.03 10.1-4.45 4.45-7.82 9.5-10.22 15.15-2.53 5.89-3.73 12.02-3.73 18.4 0 6.49 1.2 12.62 3.73 18.51 2.4 5.65 5.77 10.7 10.22 15.03 4.33 4.45 9.38 7.82 15.03 10.22 5.89 2.53 12.02 3.73 18.52 3.73 6.37 0 12.5-1.2 18.39-3.73 5.65-2.4 10.71-5.77 15.15-10.22 4.33-4.33 7.7-9.38 10.1-15.03 2.53-5.89 3.73-12.02 3.73-18.51 0-6.38-1.2-12.51-3.73-18.4-2.4-5.65-5.77-10.7-10.1-15.15-4.44-4.33-9.5-7.7-15.15-10.1-5.89-2.53-12.02-3.73-18.39-3.73zm-392.61 0.6v93.91h30.78c6.37 0 12.62-1.2 18.4-3.61 5.65-2.4 10.7-5.77 15.03-10.1 4.45-4.21 7.81-9.26 10.22-14.91 2.52-5.77 3.72-12.02 3.72-18.39 0-6.38-1.2-12.63-3.72-18.4-2.41-5.65-5.89-10.58-10.22-14.91s-9.38-7.7-15.03-9.98c-5.9-2.4-12.03-3.61-18.4-3.61h-30.78zm109.4 0v93.79h60.72v-17.92h-41.84v-19.84h41.84v-17.91h-41.84v-20.2h41.84v-17.92h-60.72zm93.44 0v93.79h18.88v-36.31h42.8v-17.92h-42.8v-21.64h42.8v-17.92h-61.68zm111.04 0l-18.88 6.01v87.78h18.88v-93.79zm78.73 18.28c7.57 0 14.79 3.01 20.2 8.42 5.29 5.29 8.29 12.5 8.29 20.2 0 7.57-3 14.79-8.29 20.2-5.41 5.29-12.63 8.29-20.2 8.29-7.7 0-14.91-3-20.2-8.29-5.41-5.41-8.42-12.63-8.42-20.2 0-7.7 3.01-14.91 8.42-20.2 5.29-5.41 12.5-8.42 20.2-8.42zm-373.74 0.6h11.91c7.69 0 14.91 2.89 20.2 8.18 5.41 5.29 8.3 12.26 8.3 19.84 0 7.57-2.89 14.67-8.3 19.96s-12.51 8.17-20.2 8.17h-11.91v-56.15zm-121.87 5.74c2.56 0.01 3.78 0.04 4.64 0.11 0.65 0.04 1.55 0.12 2 0.17 0.45 0.04 1.26 0.14 1.8 0.21 0.54 0.08 1.25 0.17 1.58 0.22s0.94 0.14 1.34 0.2c0.41 0.06 1.13 0.19 1.61 0.3 0.49 0.1 1.27 0.29 1.75 0.43s0.88 0.26 0.9 0.28c0.01 0.01-0.06 0.33-0.16 0.72-0.1 0.38-0.28 1-0.4 1.38-0.11 0.37-0.31 0.93-0.43 1.24-0.11 0.31-0.38 0.94-0.59 1.39-0.2 0.46-0.51 1.17-0.68 1.57-0.18 0.41-0.53 1.19-0.78 1.75-0.26 0.56-0.79 1.65-1.18 2.43s-0.97 1.9-1.28 2.49c-0.32 0.58-0.83 1.52-1.15 2.07-0.31 0.56-0.81 1.39-1.09 1.86-0.29 0.47-0.84 1.31-1.21 1.88-0.38 0.58-0.95 1.4-1.26 1.83-0.32 0.43-0.88 1.17-1.26 1.64-0.37 0.47-1.26 1.54-1.96 2.38-0.71 0.84-1.64 1.89-2.07 2.32l-0.79 0.79-0.71-0.73c-0.39-0.41-1.23-1.32-1.85-2.03s-1.35-1.59-1.62-1.94c-0.27-0.36-0.84-1.14-1.27-1.74s-1.28-1.85-1.88-2.76c-0.61-0.92-1.36-2.07-1.68-2.57-0.31-0.49-0.77-1.26-1.01-1.69-0.24-0.44-0.62-1.14-0.85-1.57-0.22-0.42-0.69-1.31-1.02-1.99-0.34-0.68-0.85-1.72-1.12-2.32-0.28-0.6-0.7-1.53-0.93-2.08-0.23-0.54-0.54-1.27-0.69-1.63-0.14-0.37-0.39-1.09-0.56-1.62-0.17-0.52-0.44-1.4-0.61-1.95-0.16-0.55-0.31-1.03-0.31-1.06-0.01-0.04 0.24-0.12 0.67-0.22 0.37-0.08 1.48-0.32 2.45-0.53 0.98-0.21 2.05-0.43 2.38-0.49 0.33-0.07 1.06-0.18 1.61-0.25 0.56-0.07 1.55-0.18 2.21-0.24 0.67-0.06 1.67-0.14 2.24-0.17 0.57-0.04 1.2-0.07 1.4-0.08 0.19-0.01 1.91-0.01 3.82 0z" fill="#ed1b24"></path></svg>